# xmcd
#
# Track frame offsets: 
#        150
#        18299
#        40550
#        64432
#        83927
#        101221
#        118414
#        137179
#        157838
#        176540
#        195691
#        217356
#        235066
#        260309
#        274038
#        294272
#
# Disc length: 4190 seconds
#
# Revision: 2
# Processed by: cddbd v1.5.2PL0 Copyright (c) Steve Scherf et al.
# Submitted via: ExactAudioCopyFreeDBPlugin 1.0
#
DISCID=eb105c10
DTITLE=群星 - 试音宝典11号
DYEAR=2010
DGENRE=Acid
TTITLE0=假如我是真的
TTITLE1=最后一夜
TTITLE2=牵手
TTITLE3=一水隔天涯
TTITLE4=女儿情
TTITLE5=他一定很爱你
TTITLE6=花间梦
TTITLE7=要去遥远的地方
TTITLE8=女人心
TTITLE9=昨夜星辰
TTITLE10=烟花三月
TTITLE11=外婆的彭湖湾
TTITLE12=如果云知道
TTITLE13=人约黄昏后
TTITLE14=沂蒙颂
TTITLE15=没有人比你更爱我
EXTD=
EXTT0=
EXTT1=
EXTT2=
EXTT3=
EXTT4=
EXTT5=
EXTT6=
EXTT7=
EXTT8=
EXTT9=
EXTT10=
EXTT11=
EXTT12=
EXTT13=
EXTT14=
EXTT15=
PLAYORDER=
